<svg width="54" height="52" viewBox="0 0 54 52" fill="none" xmlns="http://www.w3.org/2000/svg">
<path d="M27 0.5C41.6535 0.5 53.5 11.9344 53.5 26C53.5 40.0656 41.6535 51.5 27 51.5C12.3465 51.5 0.5 40.0656 0.5 26C0.5 11.9344 12.3465 0.5 27 0.5Z" fill="white" stroke="#003366"/>
<path d="M26.9083 12.0557C28.4589 12.0551 29.9468 12.6108 31.0861 13.6035L31.3097 13.8076V13.8086C32.4006 14.8585 33.0405 16.2558 33.1163 17.7246L33.1241 18.0195C33.1245 19.4968 32.5533 20.9212 31.5236 22.0166L31.3116 22.2314C30.1477 23.3524 28.5644 23.9844 26.9103 23.9844C25.361 23.9824 23.8747 23.4268 22.7365 22.4346L22.5138 22.2305C21.3511 21.1115 20.7002 19.5981 20.6974 18.0234L20.7052 17.7285C20.7751 16.3575 21.3353 15.0481 22.296 14.0254L22.5079 13.8115C23.5988 12.7601 25.058 12.1376 26.5988 12.0635L26.9083 12.0557ZM26.9103 12.5166H26.4103V12.5381C25.1804 12.6435 24.0149 13.1324 23.0929 13.9365L22.8878 14.124C21.8839 15.0908 21.2892 16.3838 21.2179 17.75L21.2101 18.0234V18.0244C21.2102 19.3996 21.7426 20.7183 22.6915 21.7275L22.8868 21.9258C23.9569 22.9564 25.4047 23.5321 26.9103 23.5322C28.322 23.5322 29.6832 23.0259 30.7296 22.1133L30.9347 21.9258C32.0057 20.8945 32.6114 19.4913 32.6115 18.0244C32.6115 16.6492 32.0791 15.3296 31.13 14.3203L30.9347 14.123C29.9835 13.2068 28.7338 12.6506 27.4103 12.5381V12.5156L26.9103 12.5166Z" fill="white" stroke="#003366"/>
<path d="M26.9073 27.2607C29.6923 27.2607 32.364 28.3083 34.3536 30.1748C36.2183 31.9242 37.3462 34.2631 37.5391 36.7441L37.5645 37.2422V37.8955C37.5644 38.3657 37.395 38.8222 37.084 39.1875L36.9424 39.3379C36.541 39.7243 35.9925 39.9443 35.4171 39.9443H18.3975L18.1837 39.9346C17.7582 39.8939 17.3567 39.7329 17.0294 39.4746L16.8721 39.3379C16.4715 38.952 16.2502 38.4325 16.2501 37.8955V37.2422C16.3178 34.7442 17.3323 32.3584 19.0977 30.5322L19.461 30.1748C21.4503 28.3082 24.1219 27.2608 26.9073 27.2607ZM37.0518 37.2139C36.9549 33.8808 35.1087 30.8401 32.1788 29.1221L31.8926 28.96C28.8951 27.3292 25.2525 27.2789 22.2149 28.8076L21.9229 28.96C18.827 30.6443 16.8629 33.7736 16.7628 37.2139V37.8955L16.7706 38.0547C16.8032 38.3709 16.9326 38.6687 17.1387 38.9111L17.2481 39.0283C17.5557 39.3245 17.9697 39.4883 18.3975 39.4883H35.4171C35.7914 39.4883 36.1552 39.3625 36.4464 39.1328L36.5665 39.0283V39.0273C36.8745 38.7303 37.0517 38.3238 37.0518 37.8955V37.2139Z" fill="white" stroke="#003366"/>
</svg>
