<svg width="376" height="293" viewBox="0 0 376 293" fill="none" xmlns="http://www.w3.org/2000/svg">
<path d="M257.638 66.5836H255.989V24.41C255.989 21.2044 255.312 18.0302 253.998 15.0687C252.684 12.1071 250.757 9.41618 248.329 7.14951C245.9 4.88284 243.017 3.08481 239.844 1.8581C236.671 0.63138 233.271 0 229.836 0H134.105C127.169 0 120.517 2.57176 115.613 7.14951C110.708 11.7273 107.953 17.936 107.953 24.41V255.782C107.953 258.988 108.63 262.162 109.944 265.123C111.258 268.085 113.184 270.776 115.613 273.043C118.041 275.309 120.924 277.107 124.097 278.334C127.27 279.561 130.671 280.192 134.105 280.192H229.836C236.772 280.192 243.424 277.62 248.329 273.042C253.233 268.465 255.988 262.256 255.988 255.782V96.6037H257.637L257.638 66.5836Z" fill="#E6E6E6"/>
<path d="M230.989 6.604H218.469C219.045 7.91659 219.264 9.3407 219.109 10.7509C218.953 12.161 218.427 13.514 217.576 14.6905C216.726 15.867 215.577 16.831 214.231 17.4975C212.886 18.164 211.384 18.5126 209.86 18.5125H154.906C153.381 18.5125 151.88 18.1638 150.534 17.4972C149.189 16.8307 148.04 15.8667 147.19 14.6902C146.339 13.5137 145.813 12.1608 145.657 10.7507C145.502 9.34058 145.722 7.91653 146.298 6.604H134.603C129.413 6.604 124.435 8.5209 120.765 11.933C117.095 15.3451 115.033 19.9729 115.033 24.7984V255.394C115.033 260.219 117.095 264.847 120.765 268.259C124.435 271.671 129.413 273.588 134.603 273.588H230.989C236.179 273.588 241.157 271.671 244.827 268.259C248.497 264.847 250.559 260.219 250.559 255.394V24.798C250.559 19.9726 248.497 15.3449 244.827 11.9329C241.157 8.52085 236.179 6.604 230.989 6.604Z" fill="white"/>
<path d="M169.983 98.1153C169.983 96.459 170.419 94.8319 171.248 93.3976C172.077 91.9634 173.269 90.7727 174.704 89.9453C173.269 89.117 171.642 88.6808 169.985 88.6807C168.328 88.6805 166.7 89.1163 165.265 89.9442C163.83 90.7722 162.638 91.9632 161.81 93.3974C160.981 94.8316 160.545 96.4586 160.545 98.1147C160.545 99.7709 160.981 101.398 161.81 102.832C162.638 104.266 163.83 105.457 165.265 106.285C166.7 107.113 168.328 107.549 169.985 107.549C171.642 107.549 173.269 107.112 174.704 106.284C173.269 105.457 172.077 104.266 171.248 102.832C170.419 101.398 169.983 99.7714 169.983 98.1153Z" fill="#CCCCCC"/>
<path d="M182.794 98.1153C182.793 96.459 183.261 94.8318 184.149 93.3976C185.037 91.9633 186.314 90.7726 187.852 89.9453C186.315 89.117 184.571 88.6808 182.796 88.6807C181.02 88.6805 179.276 89.1163 177.739 89.9442C176.201 90.7722 174.924 91.9632 174.037 93.3974C173.149 94.8316 172.682 96.4586 172.682 98.1147C172.682 99.7709 173.149 101.398 174.037 102.832C174.924 104.266 176.201 105.457 177.739 106.285C179.276 107.113 181.02 107.549 182.796 107.549C184.571 107.549 186.315 107.112 187.852 106.284C186.314 105.457 185.037 104.266 184.149 102.832C183.261 101.398 182.794 99.7714 182.794 98.1153Z" fill="#CCCCCC"/>
<path d="M194.932 107.549C200.518 107.549 205.046 103.325 205.046 98.1147C205.046 92.9044 200.518 88.6807 194.932 88.6807C189.346 88.6807 184.818 92.9044 184.818 98.1147C184.818 103.325 189.346 107.549 194.932 107.549Z" fill="#68E168"/>
<path d="M211.069 127.36H153.508C152.96 127.359 152.435 127.156 152.048 126.795C151.66 126.433 151.442 125.943 151.441 125.432V71.74C151.442 71.2289 151.66 70.7388 152.048 70.3774C152.435 70.0159 152.96 69.8126 153.508 69.812H211.069C211.617 69.8126 212.142 70.0159 212.53 70.3774C212.917 70.7388 213.135 71.2289 213.136 71.74V125.432C213.135 125.943 212.917 126.433 212.53 126.795C212.142 127.156 211.617 127.359 211.069 127.36ZM153.508 70.5837C153.18 70.584 152.864 70.7059 152.632 70.9228C152.399 71.1397 152.269 71.4337 152.268 71.7404V125.432C152.269 125.739 152.399 126.033 152.632 126.25C152.864 126.467 153.18 126.589 153.508 126.589H211.069C211.398 126.589 211.713 126.467 211.945 126.25C212.178 126.033 212.309 125.739 212.309 125.432V71.7404C212.309 71.4337 212.178 71.1397 211.945 70.9228C211.713 70.7059 211.398 70.584 211.069 70.5837H153.508Z" fill="#CCCCCC"/>
<path d="M237.181 165.42H129.975V166.364H237.181V165.42Z" fill="#003366"/>
<path d="M237.181 194.666H129.975V195.609H237.181V194.666Z" fill="#003366"/>
<path d="M133.257 159.523C135.237 159.523 136.843 158.025 136.843 156.178C136.843 154.33 135.237 152.832 133.257 152.832C131.276 152.832 129.67 154.33 129.67 156.178C129.67 158.025 131.276 159.523 133.257 159.523Z" fill="#68E168"/>
<path d="M133.257 188.122C135.237 188.122 136.843 186.625 136.843 184.777C136.843 182.929 135.237 181.431 133.257 181.431C131.276 181.431 129.67 182.929 129.67 184.777C129.67 186.625 131.276 188.122 133.257 188.122Z" fill="#68E168"/>
<path d="M234.65 230.25H198.758C198.138 230.25 197.544 230.02 197.106 229.611C196.667 229.202 196.421 228.647 196.42 228.069V216.335C196.421 215.756 196.667 215.202 197.106 214.793C197.544 214.384 198.138 214.154 198.758 214.153H234.65C235.27 214.154 235.865 214.384 236.303 214.793C236.742 215.202 236.988 215.756 236.989 216.335V228.069C236.988 228.647 236.742 229.202 236.303 229.611C235.865 230.02 235.27 230.25 234.65 230.25Z" fill="#68E168"/>
<path d="M144.954 159.523C146.935 159.523 148.541 158.025 148.541 156.178C148.541 154.33 146.935 152.832 144.954 152.832C142.973 152.832 141.367 154.33 141.367 156.178C141.367 158.025 142.973 159.523 144.954 159.523Z" fill="#68E168"/>
<path d="M144.954 188.122C146.935 188.122 148.541 186.625 148.541 184.777C148.541 182.929 146.935 181.431 144.954 181.431C142.973 181.431 141.367 182.929 141.367 184.777C141.367 186.625 142.973 188.122 144.954 188.122Z" fill="#68E168"/>
<path d="M156.653 159.523C158.634 159.523 160.24 158.025 160.24 156.178C160.24 154.33 158.634 152.832 156.653 152.832C154.672 152.832 153.066 154.33 153.066 156.178C153.066 158.025 154.672 159.523 156.653 159.523Z" fill="#68E168"/>
<path d="M156.653 188.122C158.634 188.122 160.24 186.625 160.24 184.777C160.24 182.929 158.634 181.431 156.653 181.431C154.672 181.431 153.066 182.929 153.066 184.777C153.066 186.625 154.672 188.122 156.653 188.122Z" fill="#68E168"/>
<path d="M374.554 293H1.4457C0.646983 293 0 292.776 0 292.5C0 292.224 0.646983 292 1.4457 292H374.554C375.353 292 376 292.224 376 292.5C376 292.776 375.353 293 374.554 293Z" fill="#3F3D56"/>
</svg>
