<svg width="138" height="30" viewBox="0 0 138 30" fill="none" xmlns="http://www.w3.org/2000/svg">
<path d="M23.0352 5.29004C22.0752 5.29004 21.3052 6.07004 21.3052 7.02004C21.3052 7.97004 22.0852 8.76004 23.0352 8.76004C23.9852 8.76004 24.7652 7.98004 24.7652 7.02004C24.7652 6.06004 23.9852 5.29004 23.0352 5.29004Z" fill="white"/>
<path d="M15.3252 7.50977C11.3052 7.50977 8.03516 10.7798 8.03516 14.7998C8.03516 18.8198 11.3052 22.0898 15.3252 22.0898C19.3452 22.0898 22.6152 18.8198 22.6152 14.7998C22.6152 10.7798 19.3452 7.50977 15.3252 7.50977ZM15.3252 19.4698C12.7552 19.4698 10.6552 17.3798 10.6552 14.7998C10.6552 12.2198 12.7452 10.1298 15.3252 10.1298C17.9052 10.1298 19.9952 12.2198 19.9952 14.7998C19.9952 17.3798 17.9052 19.4698 15.3252 19.4698Z" fill="white"/>
<path d="M21.115 29.6H9.29503C4.39503 29.6 0.405029 25.61 0.405029 20.71V8.89C0.405029 3.99 4.39503 0 9.29503 0H21.105C26.005 0 29.995 3.99 29.995 8.89V20.71C29.995 25.61 26.005 29.6 21.105 29.6H21.115ZM9.29503 2.79C5.92503 2.79 3.19503 5.53 3.19503 8.89V20.71C3.19503 24.08 5.93503 26.81 9.29503 26.81H21.105C24.475 26.81 27.215 24.07 27.215 20.71V8.89C27.215 5.52 24.475 2.79 21.105 2.79H9.29503Z" fill="white"/>
<path d="M54.005 29.6L56.125 21.68C54.925 19.51 54.295 17.08 54.295 14.62C54.295 6.56 60.855 0 68.905 0C76.955 0 83.525 6.56 83.525 14.62C83.525 22.68 76.965 29.24 68.905 29.24C66.485 29.24 64.095 28.63 61.955 27.47L53.995 29.6H54.005ZM62.355 24.5L62.855 24.8C64.695 25.9 66.785 26.48 68.905 26.48C75.445 26.48 80.755 21.16 80.755 14.63C80.755 8.1 75.445 2.77 68.905 2.77C62.365 2.77 57.055 8.08 57.055 14.62C57.055 16.78 57.655 18.9 58.785 20.77L59.095 21.27L57.915 25.69L62.355 24.5Z" fill="white"/>
<path fill-rule="evenodd" clip-rule="evenodd" d="M74.345 16.6501C73.745 16.2901 72.965 15.8901 72.255 16.1801C71.715 16.4001 71.365 17.2501 71.015 17.6901C70.835 17.9101 70.615 17.9501 70.345 17.8401C68.305 17.0301 66.745 15.6601 65.615 13.7901C65.425 13.5001 65.455 13.2701 65.685 13.0001C66.025 12.6001 66.455 12.1401 66.545 11.6001C66.635 11.0601 66.385 10.4301 66.165 9.95013C65.875 9.34013 65.565 8.46013 64.945 8.11013C64.375 7.79013 63.635 7.97013 63.135 8.38013C62.265 9.09013 61.845 10.2001 61.855 11.3001C61.855 11.6101 61.895 11.9201 61.965 12.2301C62.145 12.9601 62.475 13.6301 62.855 14.2801C63.135 14.7701 63.445 15.2401 63.785 15.6901C64.875 17.1701 66.235 18.4601 67.805 19.4201C68.595 19.9001 69.435 20.3201 70.315 20.6101C71.295 20.9301 72.175 21.2701 73.235 21.0701C74.345 20.8601 75.445 20.1701 75.885 19.1001C76.015 18.7801 76.085 18.4301 76.005 18.1001C75.855 17.4101 74.915 17.0001 74.355 16.6601L74.345 16.6501Z" fill="white"/>
<path d="M137.585 10.8754C137.585 7.23539 134.635 4.27539 130.985 4.27539H114.115C110.475 4.28539 107.525 7.23539 107.525 10.8754V18.7254C107.525 22.3654 110.475 25.3254 114.125 25.3254H130.995C134.635 25.3254 137.595 22.3754 137.595 18.7254V10.8754H137.585ZM127.665 15.3854L120.095 19.1254C119.795 19.2854 118.795 19.0754 118.795 18.7354V11.0554C118.795 10.7154 119.815 10.4954 120.105 10.6654L127.345 14.6054C127.645 14.7754 127.965 15.2154 127.665 15.3854Z" fill="white"/>
</svg>
