<svg width="291" height="232" viewBox="0 0 291 232" fill="none" xmlns="http://www.w3.org/2000/svg">
<path d="M281.365 231.372H9.63659C7.22015 231.372 4.90268 230.412 3.194 228.703C1.48532 226.995 0.525391 224.677 0.525391 222.261C99.0269 210.813 195.677 210.813 290.476 222.261C290.476 224.677 289.516 226.995 287.808 228.703C286.099 230.412 283.781 231.372 281.365 231.372Z" fill="#2F2E41"/>
<path d="M290.476 222.796L0.525391 222.26L34.1297 165.717L34.2905 165.449V40.834C34.2903 39.3215 34.5882 37.8237 35.1669 36.4263C35.7457 35.0288 36.5941 33.7591 37.6636 32.6896C38.7332 31.62 40.0029 30.7716 41.4003 30.1929C42.7978 29.6141 44.2955 29.3163 45.8081 29.3164H243.586C245.098 29.3163 246.596 29.6141 247.993 30.1929C249.391 30.7716 250.661 31.62 251.73 32.6896C252.8 33.7591 253.648 35.0288 254.227 36.4263C254.806 37.8237 255.103 39.3215 255.103 40.834V166.306L290.476 222.796Z" fill="#3F3D56"/>
<path d="M45.5446 37.3564C44.55 37.3576 43.5964 37.7532 42.893 38.4565C42.1897 39.1599 41.7941 40.1135 41.793 41.1081V154.73C41.7941 155.725 42.1898 156.678 42.8931 157.382C43.5964 158.085 44.55 158.481 45.5446 158.482H245.455C246.45 158.481 247.403 158.085 248.107 157.382C248.81 156.678 249.206 155.725 249.207 154.73V41.1081C249.206 40.1135 248.81 39.1599 248.107 38.4566C247.404 37.7532 246.45 37.3576 245.455 37.3564H45.5446Z" fill="white"/>
<path d="M46.3825 173.488C46.0751 173.489 45.7743 173.577 45.5155 173.743C45.2567 173.909 45.0506 174.145 44.9217 174.424L34.5671 196.934C34.4544 197.179 34.4051 197.448 34.4238 197.717C34.4424 197.986 34.5284 198.247 34.6739 198.474C34.8194 198.701 35.0196 198.887 35.2561 199.017C35.4927 199.146 35.758 199.214 36.0277 199.214H253.778C254.052 199.214 254.321 199.144 254.561 199.011C254.8 198.877 255.001 198.685 255.146 198.451C255.29 198.218 255.372 197.952 255.384 197.678C255.396 197.405 255.338 197.132 255.216 196.887L243.961 174.377C243.828 174.109 243.623 173.884 243.369 173.727C243.115 173.57 242.822 173.487 242.523 173.488H46.3825Z" fill="#2F2E41"/>
<path d="M144.697 35.4808C146.029 35.4808 147.109 34.401 147.109 33.069C147.109 31.737 146.029 30.6572 144.697 30.6572C143.365 30.6572 142.285 31.737 142.285 33.069C142.285 34.401 143.365 35.4808 144.697 35.4808Z" fill="white"/>
<path d="M123.293 203.502C122.94 203.502 122.596 203.619 122.316 203.834C122.035 204.049 121.833 204.35 121.741 204.692L119.143 214.339C119.079 214.577 119.071 214.827 119.118 215.069C119.166 215.311 119.269 215.539 119.419 215.735C119.57 215.931 119.763 216.09 119.984 216.199C120.205 216.308 120.449 216.365 120.696 216.365H170.091C170.347 216.365 170.6 216.304 170.828 216.186C171.056 216.069 171.252 215.898 171.401 215.69C171.549 215.481 171.646 215.239 171.682 214.986C171.719 214.732 171.694 214.473 171.61 214.231L168.271 204.584C168.161 204.268 167.956 203.994 167.684 203.8C167.411 203.606 167.086 203.502 166.751 203.502H123.293Z" fill="#2F2E41"/>
<path d="M255.102 163.573V165.717H34.1289L34.2952 165.449V163.573H255.102Z" fill="#2F2E41"/>
<path d="M248.941 75.1409C269.66 75.1409 286.457 58.3441 286.457 37.6242C286.457 16.9042 269.66 0.107422 248.941 0.107422C228.221 0.107422 211.424 16.9042 211.424 37.6242C211.424 58.3441 228.221 75.1409 248.941 75.1409Z" fill="#66A3FF"/>
<path d="M264.483 53.9708H233.398C232.829 53.9703 232.284 53.7442 231.882 53.3423C231.481 52.9404 231.254 52.3954 231.254 51.827V33.0686C231.255 32.5002 231.481 31.9553 231.882 31.5534C232.284 31.1515 232.829 30.9254 233.398 30.9248H264.483C265.051 30.9254 265.596 31.1515 265.998 31.5534C266.4 31.9553 266.626 32.5002 266.627 33.0686V51.827C266.626 52.3954 266.4 52.9404 265.998 53.3423C265.596 53.7442 265.051 53.9703 264.483 53.9708ZM233.398 33.0686V51.827H264.485L264.483 33.0686L233.398 33.0686Z" fill="white"/>
<path d="M258.587 33.0687H239.293V24.4935C239.293 18.2824 243.35 13.7744 248.94 13.7744C254.53 13.7744 258.587 18.2824 258.587 24.4935L258.587 33.0687ZM241.437 30.9249H256.444V24.4935C256.444 19.4446 253.358 15.9182 248.94 15.9182C244.522 15.9182 241.437 19.4446 241.437 24.4935L241.437 30.9249Z" fill="white"/>
<path d="M248.941 44.0552C250.125 44.0552 251.084 43.0954 251.084 41.9114C251.084 40.7274 250.125 39.7676 248.941 39.7676C247.757 39.7676 246.797 40.7274 246.797 41.9114C246.797 43.0954 247.757 44.0552 248.941 44.0552Z" fill="white"/>
<path d="M222.75 119.942H68.2517C67.4932 119.941 66.7659 119.639 66.2296 119.103C65.6932 118.567 65.3915 117.84 65.3906 117.081V78.7566C65.3915 77.998 65.6932 77.2708 66.2296 76.7345C66.7659 76.1981 67.4932 75.8964 68.2517 75.8955H222.75C223.508 75.8964 224.236 76.1981 224.772 76.7345C225.308 77.2708 225.61 77.998 225.611 78.7566V117.081C225.61 117.84 225.308 118.567 224.772 119.103C224.236 119.639 223.508 119.941 222.75 119.942ZM68.2517 77.04C67.7966 77.0404 67.3602 77.2215 67.0384 77.5433C66.7166 77.8651 66.5356 78.3015 66.5351 78.7566V117.081C66.5356 117.536 66.7166 117.972 67.0384 118.294C67.3602 118.616 67.7966 118.797 68.2517 118.798H222.75C223.205 118.797 223.641 118.616 223.963 118.294C224.285 117.972 224.466 117.536 224.466 117.081V78.7566C224.466 78.3015 224.285 77.8651 223.963 77.5433C223.641 77.2214 223.205 77.0404 222.75 77.0399L68.2517 77.04Z" fill="#E6E6E6"/>
<path d="M92.258 108.103C98.6946 108.103 103.913 102.885 103.913 96.4484C103.913 90.0118 98.6946 84.7939 92.258 84.7939C85.8214 84.7939 80.6035 90.0118 80.6035 96.4484C80.6035 102.885 85.8214 108.103 92.258 108.103Z" fill="#E6E6E6"/>
<path d="M119.174 88.6787C118.919 88.6783 118.666 88.7282 118.43 88.8257C118.194 88.9231 117.979 89.0661 117.799 89.2465C117.618 89.427 117.474 89.6412 117.377 89.8771C117.279 90.113 117.229 90.3658 117.229 90.6211C117.229 90.8765 117.279 91.1293 117.377 91.3652C117.474 91.601 117.618 91.8153 117.799 91.9957C117.979 92.1761 118.194 92.3191 118.43 92.4166C118.666 92.514 118.919 92.5639 119.174 92.5635H210.745C211.26 92.5635 211.754 92.3589 212.118 91.9946C212.483 91.6303 212.687 91.1363 212.687 90.6211C212.687 90.106 212.483 89.6119 212.118 89.2476C211.754 88.8834 211.26 88.6787 210.745 88.6787H119.174Z" fill="#E6E6E6"/>
<path d="M119.175 100.333C118.66 100.333 118.166 100.538 117.801 100.902C117.437 101.266 117.232 101.76 117.232 102.275C117.232 102.791 117.437 103.285 117.801 103.649C118.166 104.013 118.66 104.218 119.175 104.218H158.578C159.093 104.218 159.587 104.013 159.952 103.649C160.316 103.285 160.52 102.791 160.52 102.275C160.52 101.76 160.316 101.266 159.952 100.902C159.587 100.538 159.093 100.333 158.578 100.333H119.175Z" fill="#E6E6E6"/>
</svg>
